# xmcd CD database file
#
# Track frame offsets:
#	150
#	10274
#	25013
#	38137
#	48199
#	59039
#	71734
#	84942
#	99107
#
# Disc length: 1485 seconds
#
# Revision: 2
# Processed by: cddbd v1.4PL0 Copyright (c) Steve Scherf et al.
# Submitted via: CDex 1.50Beta7
#
DISCID=6605cb09
DTITLE=Nada Jovic and Dusko Gojkovic Quintet - Take Me In Your Arms
DYEAR=1966
DGENRE=Jazz
TTITLE0=My Hearth Belong To Daddy
TTITLE1=A Lot Of Livin' To Do
TTITLE2=Where Can I Go Without You
TTITLE3=Love Me Darling
TTITLE4=Take Me In Your Arms
TTITLE5=Goody Goody
TTITLE6=Attention
TTITLE7=Love For Sale
TTITLE8=One Of These Days
EXTD=YEAR: 1966
EXTT0=
EXTT1=
EXTT2=
EXTT3=
EXTT4=
EXTT5=
EXTT6=
EXTT7=
EXTT8=
PLAYORDER=
